<svg width="30" height="30" viewBox="0 0 30 30" fill="none" xmlns="http://www.w3.org/2000/svg">
    <path d="M12.875 26.25C13.0842 26.6306 13.3918 26.9479 13.7656 27.169C14.1394 27.39 14.5657 27.5067 15 27.5067C15.4343 27.5067 15.8606 27.39 16.2344 27.169C16.6082 26.9479 16.9158 26.6306 17.125 26.25" stroke="#212A44" stroke-width="2" stroke-linecap="round" stroke-linejoin="round"/>
    <path d="M7.5 10C7.5 8.01088 8.29018 6.10322 9.6967 4.6967C11.1032 3.29018 13.0109 2.5 15 2.5C16.9891 2.5 18.8968 3.29018 20.3033 4.6967C21.7098 6.10322 22.5 8.01088 22.5 10C22.5 18.75 26.25 21.25 26.25 21.25H3.75C3.75 21.25 7.5 18.75 7.5 10Z" stroke="#212A44" stroke-width="2" stroke-linecap="round" stroke-linejoin="round"/>
</svg>
